<svg width="35" height="35" viewBox="0 0 35 35" fill="none" xmlns="http://www.w3.org/2000/svg">
<circle cx="17.5" cy="17.5" r="17.5" fill="#7E6CAD"/>
<path fill-rule="evenodd" clip-rule="evenodd" d="M15.6905 21.381C18.281 21.381 20.381 19.281 20.381 16.6905C20.381 14.1 18.281 12 15.6905 12C13.1 12 11 14.1 11 16.6905C11 19.281 13.1 21.381 15.6905 21.381ZM15.6905 24.381C19.9378 24.381 23.381 20.9378 23.381 16.6905C23.381 12.4431 19.9378 9 15.6905 9C11.4431 9 8 12.4431 8 16.6905C8 20.9378 11.4431 24.381 15.6905 24.381Z" fill="white"/>
<path fill-rule="evenodd" clip-rule="evenodd" d="M19.7079 20.1551C20.2534 19.5316 21.2011 19.4685 21.8245 20.014L27.3755 24.8711C27.999 25.4167 28.0622 26.3643 27.5166 26.9878C26.9711 27.6112 26.0235 27.6744 25.4 27.1289L19.849 22.2717C19.2255 21.7262 19.1624 20.7786 19.7079 20.1551Z" fill="white"/>
</svg>
